<svg version="1.1" viewBox="0.0 0.0 1018.0 207.0" fill="none" stroke="none" stroke-linecap="square" stroke-miterlimit="10" xmlns:xlink="http://www.w3.org/1999/xlink" xmlns="http://www.w3.org/2000/svg"><clipPath id="p.0"><path d="m0 0l1018.0 0l0 207.0l-1018.0 0l0 -207.0z" clip-rule="nonzero"/></clipPath><g clip-path="url(#p.0)"><path fill="#000000" fill-opacity="0.0" d="m0 0l1018.0 0l0 207.0l-1018.0 0z" fill-rule="evenodd"/><path fill="#000000" d="m175.46736 111.75745l0 0c0 -1.652504 1.3396149 -2.9921265 2.9921265 -2.9921265l49.13385 0c0.79356384 0 1.5546265 0.31524658 2.1157532 0.8763733c0.56114197 0.56113434 0.8763733 1.322197 0.8763733 2.1157532l0 0l0 0c0 1.6525116 -1.3396149 2.9921265 -2.9921265 2.9921265l-49.13385 0c-1.6525116 0 -2.9921265 -1.3396149 -2.9921265 -2.9921265z" fill-rule="evenodd"/><path fill="#000000" fill-opacity="0.0" d="m53.05916 107.786194l0 0c0 -26.545555 20.74424 -48.064983 46.333565 -48.064983l0 0c12.288422 0 24.073547 5.0639763 32.76278 14.077908c8.689224 9.013931 13.5707855 21.239449 13.5707855 33.987076l0 0c0 26.545563 -20.744247 48.064987 -46.333565 48.064987l0 0c-25.589325 0 -46.333565 -21.519424 -46.333565 -48.064987z" fill-rule="evenodd"/><path stroke="#ff9900" stroke-width="4.0" stroke-linejoin="round" stroke-linecap="butt" d="m53.05916 107.786194l0 0c0 -26.545555 20.74424 -48.064983 46.333565 -48.064983l0 0c12.288422 0 24.073547 5.0639763 32.76278 14.077908c8.689224 9.013931 13.5707855 21.239449 13.5707855 33.987076l0 0c0 26.545563 -20.744247 48.064987 -46.333565 48.064987l0 0c-25.589325 0 -46.333565 -21.519424 -46.333565 -48.064987z" fill-rule="evenodd"/><path fill="#000000" fill-opacity="0.0" d="m65.33837 85.79171l68.108696 0l0 51.922813l-68.108696 0z" fill-rule="evenodd"/><path fill="#000000" d="m89.87026 107.311714l0 3.0l-1.75 0l0 -8.53125l3.328125 0q0.953125 0 1.6875 0.359375q0.734375 0.34375 1.125 1.0q0.390625 0.640625 0.390625 1.46875q0 1.25 -0.859375 1.984375q-0.859375 0.71875 -2.375 0.71875l-1.546875 0zm0 -1.4375l1.578125 0q0.6875 0 1.046875 -0.328125q0.375 -0.328125 0.375 -0.9375q0 -0.625 -0.375 -1.0q-0.359375 -0.390625 -1.015625 -0.40625l-1.609375 0l0 2.671875zm7.6621094 4.4375l-1.703125 0l0 -9.0l1.703125 0l0 9.0zm5.0722656 0q-0.125 -0.234375 -0.171875 -0.5625q-0.609375 0.6875 -1.59375 0.6875q-0.9375 0 -1.546875 -0.546875q-0.609375 -0.546875 -0.609375 -1.359375q0 -1.015625 0.734375 -1.546875q0.75 -0.546875 2.171875 -0.546875l0.765625 0l0 -0.359375q0 -0.4375 -0.21875 -0.703125q-0.21875 -0.265625 -0.71875 -0.265625q-0.421875 0 -0.671875 0.203125q-0.234375 0.203125 -0.234375 0.5625l-1.6875 0q0 -0.546875 0.328125 -1.015625q0.34375 -0.46875 0.96875 -0.734375q0.625 -0.265625 1.390625 -0.265625q1.171875 0 1.859375 0.59375q0.6875 0.578125 0.6875 1.640625l0 2.75q0.015625 0.90625 0.25 1.375l0 0.09375l-1.703125 0zm-1.40625 -1.171875q0.375 0 0.6875 -0.171875q0.328125 -0.171875 0.46875 -0.453125l0 -1.09375l-0.625 0q-1.265625 0 -1.359375 0.890625l0 0.09375q0 0.3125 0.21875 0.53125q0.21875 0.203125 0.609375 0.203125zm5.7148438 -5.171875l0.0625 0.734375q0.671875 -0.84375 1.8125 -0.84375q1.015625 0 1.5 0.59375q0.5 0.578125 0.515625 1.765625l0 4.09375l-1.703125 0l0 -4.0625q0 -0.53125 -0.234375 -0.765625q-0.234375 -0.25 -0.78125 -0.25q-0.703125 0 -1.0625 0.609375l0 4.46875l-1.703125 0l0 -6.34375l1.59375 0z" fill-rule="nonzero"/><path fill="#000000" fill-opacity="0.0" d="m260.2923 107.786194l0 0c0 -26.545555 20.744232 -48.064983 46.333557 -48.064983l0 0c12.288422 0 24.073547 5.0639763 32.762756 14.077908c8.6892395 9.013931 13.570801 21.239449 13.570801 33.987076l0 0c0 26.545563 -20.744232 48.064987 -46.333557 48.064987l0 0c-25.589325 0 -46.333557 -21.519424 -46.333557 -48.064987z" fill-rule="evenodd"/><path stroke="#3c78d8" stroke-width="4.0" stroke-linejoin="round" stroke-linecap="butt" d="m260.2923 107.786194l0 0c0 -26.545555 20.744232 -48.064983 46.333557 -48.064983l0 0c12.288422 0 24.073547 5.0639763 32.762756 14.077908c8.6892395 9.013931 13.570801 21.239449 13.570801 33.987076l0 0c0 26.545563 -20.744232 48.064987 -46.333557 48.064987l0 0c-25.589325 0 -46.333557 -21.519424 -46.333557 -48.064987z" fill-rule="evenodd"/><path fill="#000000" fill-opacity="0.0" d="m272.5715 85.79171l68.1087 0l0 51.922813l-68.1087 0z" fill-rule="evenodd"/><path fill="#000000" d="m291.62195 108.07734q0 -0.5 -0.359375 -0.765625q-0.34375 -0.265625 -1.265625 -0.5625q-0.90625 -0.296875 -1.4375 -0.59375q-1.453125 -0.78125 -1.453125 -2.109375q0 -0.6875 0.390625 -1.234375q0.390625 -0.546875 1.109375 -0.84375q0.734375 -0.3125 1.640625 -0.3125q0.921875 0 1.625 0.34375q0.71875 0.328125 1.109375 0.9375q0.40625 0.59375 0.40625 1.359375l-1.765625 0q0 -0.578125 -0.375 -0.90625q-0.359375 -0.328125 -1.03125 -0.328125q-0.640625 0 -1.0 0.28125q-0.359375 0.265625 -0.359375 0.703125q0 0.421875 0.421875 0.703125q0.421875 0.28125 1.234375 0.53125q1.5 0.453125 2.1875 1.125q0.6875 0.65625 0.6875 1.65625q0 1.109375 -0.84375 1.75q-0.828125 0.625 -2.25 0.625q-0.984375 0 -1.796875 -0.359375q-0.8125 -0.375 -1.234375 -1.0q-0.421875 -0.625 -0.421875 -1.453125l1.765625 0q0 1.421875 1.6875 1.421875q0.625 0 0.96875 -0.25q0.359375 -0.265625 0.359375 -0.71875zm8.548828 -0.875q0 1.46875 -0.671875 2.359375q-0.65625 0.875 -1.796875 0.875q-0.953125 0 -1.546875 -0.671875l0 2.984375l-1.6875 0l0 -8.78125l1.5625 0l0.0625 0.625q0.609375 -0.734375 1.609375 -0.734375q1.171875 0 1.8125 0.875q0.65625 0.859375 0.65625 2.375l0 0.09375zm-1.6875 -0.125q0 -0.890625 -0.328125 -1.359375q-0.3125 -0.484375 -0.90625 -0.484375q-0.796875 0 -1.09375 0.609375l0 2.59375q0.3125 0.625 1.109375 0.625q1.21875 0 1.21875 -1.984375zm5.6464844 3.359375q-1.390625 0 -2.265625 -0.859375q-0.875 -0.859375 -0.875 -2.28125l0 -0.171875q0 -0.953125 0.359375 -1.703125q0.375 -0.75 1.046875 -1.15625q0.6875 -0.40625 1.546875 -0.40625q1.3125 0 2.046875 0.828125q0.75 0.8125 0.75 2.3125l0 0.6875l-4.03125 0q0.078125 0.625 0.484375 1.0q0.421875 0.375 1.0625 0.375q0.96875 0 1.515625 -0.703125l0.84375 0.921875q-0.390625 0.546875 -1.046875 0.859375q-0.640625 0.296875 -1.4375 0.296875zm-0.1875 -5.21875q-0.5 0 -0.8125 0.34375q-0.3125 0.34375 -0.40625 0.96875l2.359375 0l0 -0.125q-0.015625 -0.5625 -0.3125 -0.875q-0.28125 -0.3125 -0.828125 -0.3125zm6.392578 3.84375q0.46875 0 0.765625 -0.25q0.296875 -0.265625 0.3125 -0.6875l1.578125 0q0 0.640625 -0.34375 1.1875q-0.34375 0.53125 -0.953125 0.828125q-0.59375 0.296875 -1.328125 0.296875q-1.359375 0 -2.140625 -0.859375q-0.78125 -0.875 -0.78125 -2.40625l0 -0.109375q0 -1.46875 0.78125 -2.328125q0.78125 -0.875 2.140625 -0.875q1.1875 0 1.90625 0.671875q0.71875 0.671875 0.71875 1.796875l-1.578125 0q-0.015625 -0.484375 -0.3125 -0.796875q-0.296875 -0.3125 -0.765625 -0.3125q-0.59375 0 -0.90625 0.4375q-0.296875 0.4375 -0.296875 1.390625l0 0.1875q0 0.96875 0.296875 1.40625q0.296875 0.421875 0.90625 0.421875zm5.4140625 1.25l-1.703125 0l0 -6.34375l1.703125 0l0 6.34375zm-1.796875 -7.984375q0 -0.375 0.25 -0.625q0.265625 -0.25 0.703125 -0.25q0.421875 0 0.671875 0.25q0.265625 0.25 0.265625 0.625q0 0.390625 -0.265625 0.640625q-0.25 0.234375 -0.6875 0.234375q-0.421875 0 -0.6875 -0.234375q-0.25 -0.25 -0.25 -0.640625zm3.6503906 7.984375l0 -5.09375l-0.9375 0l0 -1.25l0.9375 0l0 -0.53125q0 -1.078125 0.609375 -1.65625q0.625 -0.59375 1.71875 -0.59375q0.359375 0 0.859375 0.125l-0.015625 1.3125q-0.203125 -0.0625 -0.515625 -0.0625q-0.953125 0 -0.953125 0.90625l0 0.5l1.265625 0l0 1.25l-1.265625 0l0 5.09375l-1.703125 0zm6.2070312 -2.390625l1.171875 -3.953125l1.8125 0l-2.546875 7.328125l-0.140625 0.328125q-0.5625 1.25 -1.875 1.25q-0.359375 0 -0.75 -0.109375l0 -1.28125l0.265625 0q0.484375 0 0.71875 -0.15625q0.234375 -0.140625 0.375 -0.46875l0.1875 -0.53125l-2.21875 -6.359375l1.828125 0l1.171875 3.953125z" fill-rule="nonzero"/><path fill="#000000" d="m384.64114 111.75745l0 0c0 -1.652504 1.3396301 -2.9921265 2.9921265 -2.9921265l49.13388 0c0.7935486 0 1.554596 0.31524658 2.1157227 0.8763733c0.5611572 0.56113434 0.8763733 1.322197 0.8763733 2.1157532l0 0l0 0c0 1.6525116 -1.3395996 2.9921265 -2.992096 2.9921265l-49.13388 0c-1.6524963 0 -2.9921265 -1.3396149 -2.9921265 -2.9921265z" fill-rule="evenodd"/><path fill="#000000" d="m589.9488 110.72551l0 0c0 -1.652504 1.3395996 -2.9921265 2.9921265 -2.9921265l49.13385 0c0.7935791 0 1.5546265 0.31524658 2.1157837 0.8763733c0.5610962 0.56113434 0.8763428 1.322197 0.8763428 2.1157532l0 0l0 0c0 1.652504 -1.3395996 2.9921265 -2.9921265 2.9921265l-49.13385 0c-1.6525269 0 -2.9921265 -1.3396225 -2.9921265 -2.9921265z" fill-rule="evenodd"/><path fill="#000000" fill-opacity="0.0" d="m467.5406 106.75426l0 0c0 -26.545555 20.744232 -48.064983 46.333557 -48.064983l0 0c12.288452 0 24.073547 5.0639725 32.762756 14.077908c8.68927 9.013931 13.570801 21.239449 13.570801 33.987076l0 0c0 26.545563 -20.744202 48.064987 -46.333557 48.064987l0 0c-25.589325 0 -46.333557 -21.519424 -46.333557 -48.064987z" fill-rule="evenodd"/><path stroke="#cc0000" stroke-width="4.0" stroke-linejoin="round" stroke-linecap="butt" d="m467.5406 106.75426l0 0c0 -26.545555 20.744232 -48.064983 46.333557 -48.064983l0 0c12.288452 0 24.073547 5.0639725 32.762756 14.077908c8.68927 9.013931 13.570801 21.239449 13.570801 33.987076l0 0c0 26.545563 -20.744202 48.064987 -46.333557 48.064987l0 0c-25.589325 0 -46.333557 -21.519424 -46.333557 -48.064987z" fill-rule="evenodd"/><path fill="#000000" fill-opacity="0.0" d="m479.8198 84.75977l68.108734 0l0 51.922813l-68.108734 0z" fill-rule="evenodd"/><path fill="#000000" d="m496.03625 109.27978l0 -8.53125l2.625 0q1.125 0 2.0 0.515625q0.890625 0.5 1.390625 1.4375q0.5 0.921875 0.5 2.125l0 0.390625q0 1.1875 -0.484375 2.109375q-0.484375 0.921875 -1.375 1.4375q-0.890625 0.515625 -2.015625 0.515625l-2.640625 0zm1.75 -7.109375l0 5.703125l0.859375 0q1.03125 0 1.5625 -0.671875q0.546875 -0.6875 0.5625 -1.9375l0 -0.453125q0 -1.296875 -0.546875 -1.96875q-0.53125 -0.671875 -1.5625 -0.671875l-0.875 0zm8.845703 7.234375q-1.390625 0 -2.265625 -0.859375q-0.875 -0.859375 -0.875 -2.28125l0 -0.171875q0 -0.953125 0.359375 -1.703125q0.375 -0.75 1.046875 -1.15625q0.6875 -0.40625 1.546875 -0.40625q1.3125 0 2.046875 0.828125q0.75 0.8125 0.75 2.3125l0 0.6875l-4.03125 0q0.078125 0.625 0.484375 1.0q0.421875 0.375 1.0625 0.375q0.96875 0 1.515625 -0.703125l0.84375 0.921875q-0.390625 0.546875 -1.046875 0.859375q-0.640625 0.296875 -1.4375 0.296875zm-0.1875 -5.21875q-0.5 0 -0.8125 0.34375q-0.3125 0.34375 -0.40625 0.96875l2.359375 0l0 -0.125q-0.015625 -0.5625 -0.3125 -0.875q-0.28125 -0.3125 -0.828125 -0.3125zm7.189453 3.34375q0 -0.3125 -0.3125 -0.484375q-0.296875 -0.1875 -0.96875 -0.328125q-2.265625 -0.46875 -2.265625 -1.921875q0 -0.84375 0.6875 -1.40625q0.703125 -0.5625 1.84375 -0.5625q1.203125 0 1.921875 0.5625q0.734375 0.5625 0.734375 1.484375l-1.703125 0q0 -0.375 -0.234375 -0.609375q-0.234375 -0.234375 -0.734375 -0.234375q-0.421875 0 -0.65625 0.203125q-0.234375 0.1875 -0.234375 0.484375q0 0.28125 0.265625 0.453125q0.265625 0.171875 0.890625 0.296875q0.640625 0.125 1.078125 0.28125q1.34375 0.5 1.34375 1.703125q0 0.875 -0.75 1.421875q-0.734375 0.53125 -1.921875 0.53125q-0.796875 0 -1.421875 -0.28125q-0.609375 -0.296875 -0.96875 -0.78125q-0.34375 -0.5 -0.34375 -1.078125l1.609375 0q0.015625 0.453125 0.328125 0.703125q0.3125 0.234375 0.828125 0.234375q0.5 0 0.734375 -0.1875q0.25 -0.1875 0.25 -0.484375zm4.529297 1.75l-1.703125 0l0 -6.34375l1.703125 0l0 6.34375zm-1.796875 -7.984375q0 -0.375 0.25 -0.625q0.265625 -0.25 0.703125 -0.25q0.421875 0 0.671875 0.25q0.265625 0.25 0.265625 0.625q0 0.390625 -0.265625 0.640625q-0.25 0.234375 -0.6875 0.234375q-0.421875 0 -0.6875 -0.234375q-0.25 -0.25 -0.25 -0.640625zm2.9472656 4.765625q0 -1.453125 0.6875 -2.34375q0.703125 -0.890625 1.875 -0.890625q1.046875 0 1.625 0.703125l0.078125 -0.59375l1.53125 0l0 6.125q0 0.84375 -0.390625 1.453125q-0.375 0.625 -1.0625 0.9375q-0.671875 0.328125 -1.59375 0.328125q-0.703125 0 -1.375 -0.28125q-0.65625 -0.28125 -0.984375 -0.71875l0.75 -1.03125q0.625 0.703125 1.53125 0.703125q0.671875 0 1.046875 -0.359375q0.375 -0.359375 0.375 -1.015625l0 -0.34375q-0.578125 0.671875 -1.546875 0.671875q-1.140625 0 -1.84375 -0.890625q-0.703125 -0.90625 -0.703125 -2.375l0 -0.078125zm1.6875 0.125q0 0.859375 0.34375 1.359375q0.359375 0.484375 0.953125 0.484375q0.78125 0 1.109375 -0.578125l0 -2.671875q-0.34375 -0.578125 -1.09375 -0.578125q-0.609375 0 -0.96875 0.5q-0.34375 0.5 -0.34375 1.484375zm6.9589844 -3.25l0.0625 0.734375q0.671875 -0.84375 1.8125 -0.84375q1.015625 0 1.5 0.59375q0.5 0.578125 0.515625 1.765625l0 4.09375l-1.703125 0l0 -4.0625q0 -0.53125 -0.234375 -0.765625q-0.234375 -0.25 -0.78125 -0.25q-0.703125 0 -1.0625 0.609375l0 4.46875l-1.703125 0l0 -6.34375l1.59375 0z" fill-rule="nonzero"/><path fill="#000000" fill-opacity="0.0" d="m674.77374 106.75426l0 0c0 -26.545555 20.744202 -48.064983 46.333557 -48.064983l0 0c12.288391 0 24.073547 5.0639725 32.762756 14.077908c8.689209 9.013931 13.570801 21.239449 13.570801 33.987076l0 0c0 26.545563 -20.744263 48.064987 -46.333557 48.064987l0 0c-25.589355 0 -46.333557 -21.519424 -46.333557 -48.064987z" fill-rule="evenodd"/><path stroke="#38761d" stroke-width="4.0" stroke-linejoin="round" stroke-linecap="butt" d="m674.77374 106.75426l0 0c0 -26.545555 20.744202 -48.064983 46.333557 -48.064983l0 0c12.288391 0 24.073547 5.0639725 32.762756 14.077908c8.689209 9.013931 13.570801 21.239449 13.570801 33.987076l0 0c0 26.545563 -20.744263 48.064987 -46.333557 48.064987l0 0c-25.589355 0 -46.333557 -21.519424 -46.333557 -48.064987z" fill-rule="evenodd"/><path fill="#000000" fill-opacity="0.0" d="m687.0529 84.75977l68.1087 0l0 51.922813l-68.1087 0z" fill-rule="evenodd"/><path fill="#000000" d="m707.8905 107.0454q0 -0.5 -0.359375 -0.765625q-0.34375 -0.265625 -1.265625 -0.5625q-0.90625 -0.296875 -1.4375 -0.59375q-1.453125 -0.78125 -1.453125 -2.109375q0 -0.6875 0.390625 -1.234375q0.390625 -0.546875 1.109375 -0.84375q0.734375 -0.3125 1.640625 -0.3125q0.921875 0 1.625 0.34375q0.71875 0.328125 1.109375 0.9375q0.40625 0.59375 0.40625 1.359375l-1.765625 0q0 -0.578125 -0.375 -0.90625q-0.359375 -0.328125 -1.03125 -0.328125q-0.640625 0 -1.0 0.28125q-0.359375 0.265625 -0.359375 0.703125q0 0.421875 0.421875 0.703125q0.421875 0.28125 1.234375 0.53125q1.5 0.453125 2.1875 1.125q0.6875 0.65625 0.6875 1.65625q0 1.109375 -0.84375 1.75q-0.828125 0.625 -2.25 0.625q-0.984375 0 -1.796875 -0.359375q-0.8125 -0.375 -1.234375 -1.0q-0.421875 -0.625 -0.421875 -1.453125l1.765625 0q0 1.421875 1.6875 1.421875q0.625 0 0.96875 -0.25q0.359375 -0.265625 0.359375 -0.71875zm6.642578 1.59375q-0.625 0.765625 -1.734375 0.765625q-1.03125 0 -1.5625 -0.59375q-0.53125 -0.59375 -0.546875 -1.71875l0 -4.15625l1.6875 0l0 4.09375q0 1.0 0.90625 1.0q0.859375 0 1.1875 -0.609375l0 -4.484375l1.703125 0l0 6.34375l-1.59375 0l-0.046875 -0.640625zm8.621094 -2.46875q0 1.46875 -0.671875 2.359375q-0.65625 0.875 -1.796875 0.875q-0.953125 0 -1.546875 -0.671875l0 2.984375l-1.6875 0l0 -8.78125l1.5625 0l0.0625 0.625q0.609375 -0.734375 1.609375 -0.734375q1.171875 0 1.8125 0.875q0.65625 0.859375 0.65625 2.375l0 0.09375zm-1.6875 -0.125q0 -0.890625 -0.328125 -1.359375q-0.3125 -0.484375 -0.90625 -0.484375q-0.796875 0 -1.09375 0.609375l0 2.59375q0.3125 0.625 1.109375 0.625q1.21875 0 1.21875 -1.984375zm8.443359 0.125q0 1.46875 -0.671875 2.359375q-0.65625 0.875 -1.796875 0.875q-0.953125 0 -1.546875 -0.671875l0 2.984375l-1.6875 0l0 -8.78125l1.5625 0l0.0625 0.625q0.609375 -0.734375 1.609375 -0.734375q1.171875 0 1.8125 0.875q0.65625 0.859375 0.65625 2.375l0 0.09375zm-1.6875 -0.125q0 -0.890625 -0.328125 -1.359375q-0.3125 -0.484375 -0.90625 -0.484375q-0.796875 0 -1.09375 0.609375l0 2.59375q0.3125 0.625 1.109375 0.625q1.21875 0 1.21875 -1.984375zm4.5214844 3.234375l-1.703125 0l0 -9.0l1.703125 0l0 9.0zm3.7597656 -2.390625l1.171875 -3.953125l1.8125 0l-2.546875 7.328125l-0.140625 0.328125q-0.5625 1.25 -1.875 1.25q-0.359375 0 -0.75 -0.109375l0 -1.28125l0.265625 0q0.484375 0 0.71875 -0.15625q0.234375 -0.140625 0.375 -0.46875l0.1875 -0.53125l-2.21875 -6.359375l1.828125 0l1.171875 3.953125z" fill-rule="nonzero"/><path fill="#000000" d="m799.12256 110.72551l0 0c0 -1.652504 1.3396606 -2.9921265 2.9921265 -2.9921265l49.13391 0c0.79351807 0 1.5545654 0.31524658 2.1157227 0.8763733c0.5611572 0.56113434 0.8764038 1.322197 0.8764038 2.1157532l0 0l0 0c0 1.652504 -1.3396606 2.9921265 -2.9921265 2.9921265l-49.13391 0c-1.6524658 0 -2.9921265 -1.3396225 -2.9921265 -2.9921265z" fill-rule="evenodd"/><path fill="#000000" fill-opacity="0.0" d="m882.6952 106.75426l0 0c0 -26.545555 20.744202 -48.064983 46.333557 -48.064983l0 0c12.288391 0 24.073547 5.0639725 32.762756 14.077908c8.689209 9.013931 13.570801 21.239449 13.570801 33.987076l0 0c0 26.545563 -20.744263 48.064987 -46.333557 48.064987l0 0c-25.589355 0 -46.333557 -21.519424 -46.333557 -48.064987z" fill-rule="evenodd"/><path stroke="#000000" stroke-width="4.0" stroke-linejoin="round" stroke-linecap="butt" d="m882.6952 106.75426l0 0c0 -26.545555 20.744202 -48.064983 46.333557 -48.064983l0 0c12.288391 0 24.073547 5.0639725 32.762756 14.077908c8.689209 9.013931 13.570801 21.239449 13.570801 33.987076l0 0c0 26.545563 -20.744263 48.064987 -46.333557 48.064987l0 0c-25.589355 0 -46.333557 -21.519424 -46.333557 -48.064987z" fill-rule="evenodd"/><path fill="#000000" fill-opacity="0.0" d="m894.97437 84.75977l68.1087 0l0 51.922813l-68.1087 0z" fill-rule="evenodd"/><path fill="#000000" d="m915.0336 109.27978l-1.75 0l0 -8.53125l1.75 0l0 8.53125zm3.0761719 -6.34375l0.0625 0.734375q0.671875 -0.84375 1.8125 -0.84375q1.015625 0 1.5 0.59375q0.5 0.578125 0.515625 1.765625l0 4.09375l-1.703125 0l0 -4.0625q0 -0.53125 -0.234375 -0.765625q-0.234375 -0.25 -0.78125 -0.25q-0.703125 0 -1.0625 0.609375l0 4.46875l-1.703125 0l0 -6.34375l1.59375 0zm8.595703 4.59375q0 -0.3125 -0.3125 -0.484375q-0.296875 -0.1875 -0.96875 -0.328125q-2.265625 -0.46875 -2.265625 -1.921875q0 -0.84375 0.6875 -1.40625q0.703125 -0.5625 1.84375 -0.5625q1.203125 0 1.921875 0.5625q0.734375 0.5625 0.734375 1.484375l-1.703125 0q0 -0.375 -0.234375 -0.609375q-0.234375 -0.234375 -0.734375 -0.234375q-0.421875 0 -0.65625 0.203125q-0.234375 0.1875 -0.234375 0.484375q0 0.28125 0.265625 0.453125q0.265625 0.171875 0.890625 0.296875q0.640625 0.125 1.078125 0.28125q1.34375 0.5 1.34375 1.703125q0 0.875 -0.75 1.421875q-0.734375 0.53125 -1.921875 0.53125q-0.796875 0 -1.421875 -0.28125q-0.609375 -0.296875 -0.96875 -0.78125q-0.34375 -0.5 -0.34375 -1.078125l1.609375 0q0.015625 0.453125 0.328125 0.703125q0.3125 0.234375 0.828125 0.234375q0.5 0 0.734375 -0.1875q0.25 -0.1875 0.25 -0.484375zm4.763672 -6.15625l0 1.5625l1.09375 0l0 1.25l-1.09375 0l0 3.15625q0 0.359375 0.140625 0.515625q0.140625 0.140625 0.515625 0.140625q0.28125 0 0.5 -0.03125l0 1.28125q-0.5 0.15625 -1.03125 0.15625q-1.78125 0 -1.8125 -1.8125l0 -3.40625l-0.921875 0l0 -1.25l0.921875 0l0 -1.5625l1.6875 0zm5.7109375 7.90625q-0.125 -0.234375 -0.171875 -0.5625q-0.609375 0.6875 -1.59375 0.6875q-0.9375 0 -1.546875 -0.546875q-0.609375 -0.546875 -0.609375 -1.359375q0 -1.015625 0.734375 -1.546875q0.75 -0.546875 2.171875 -0.546875l0.765625 0l0 -0.359375q0 -0.4375 -0.21875 -0.703125q-0.21875 -0.265625 -0.71875 -0.265625q-0.421875 0 -0.671875 0.203125q-0.234375 0.203125 -0.234375 0.5625l-1.6875 0q0 -0.546875 0.328125 -1.015625q0.34375 -0.46875 0.96875 -0.734375q0.625 -0.265625 1.390625 -0.265625q1.171875 0 1.859375 0.59375q0.6875 0.578125 0.6875 1.640625l0 2.75q0.015625 0.90625 0.25 1.375l0 0.09375l-1.703125 0zm-1.40625 -1.171875q0.375 0 0.6875 -0.171875q0.328125 -0.171875 0.46875 -0.453125l0 -1.09375l-0.625 0q-1.265625 0 -1.359375 0.890625l0 0.09375q0 0.3125 0.21875 0.53125q0.21875 0.203125 0.609375 0.203125zm5.9492188 1.171875l-1.703125 0l0 -9.0l1.703125 0l0 9.0zm3.1816406 0l-1.703125 0l0 -9.0l1.703125 0l0 9.0z" fill-rule="nonzero"/></g></svg>