<svg version="1.1" viewBox="0.0 0.0 1954.0314960629921 328.0" fill="none" stroke="none" stroke-linecap="square" stroke-miterlimit="10" xmlns:xlink="http://www.w3.org/1999/xlink" xmlns="http://www.w3.org/2000/svg"><clipPath id="p.0"><path d="m0 0l1954.0315 0l0 328.0l-1954.0315 0l0 -328.0z" clip-rule="nonzero"/></clipPath><g clip-path="url(#p.0)"><path fill="#000000" fill-opacity="0.0" d="m0 0l1954.0315 0l0 328.0l-1954.0315 0z" fill-rule="evenodd"/><path fill="#000000" d="m297.87555 164.82562l0 0c0 -3.305008 2.6792603 -5.984253 5.984253 -5.984253l98.26773 0c1.5871277 0 3.1092224 0.63049316 4.2315063 1.7527466c1.1222534 1.1222687 1.7527466 2.644394 1.7527466 4.2315063l0 0l0 0c0 3.305008 -2.6792603 5.984253 -5.984253 5.984253l-98.26773 0c-3.3049927 0 -5.984253 -2.679245 -5.984253 -5.984253z" fill-rule="evenodd"/><path fill="#000000" fill-opacity="0.0" d="m53.05916 156.88312l0 0c0 -53.091118 41.488487 -96.129974 92.66713 -96.129974l0 0c24.576843 0 48.147095 10.127949 65.52554 28.155819c17.378464 18.02787 27.141571 42.478897 27.141571 67.97415l0 0c0 53.091125 -41.48848 96.129974 -92.667114 96.129974l0 0c-51.178642 0 -92.66713 -43.03885 -92.66713 -96.129974z" fill-rule="evenodd"/><path stroke="#ff9900" stroke-width="4.0" stroke-linejoin="round" stroke-linecap="butt" d="m53.05916 156.88312l0 0c0 -53.091118 41.488487 -96.129974 92.66713 -96.129974l0 0c24.576843 0 48.147095 10.127949 65.52554 28.155819c17.378464 18.02787 27.141571 42.478897 27.141571 67.97415l0 0c0 53.091125 -41.48848 96.129974 -92.667114 96.129974l0 0c-51.178642 0 -92.66713 -43.03885 -92.66713 -96.129974z" fill-rule="evenodd"/><path fill="#000000" fill-opacity="0.0" d="m77.6168 112.89498l136.2174 0l0 99.57531l-136.2174 0z" fill-rule="evenodd"/><path fill="#000000" d="m115.554596 162.75935l0 7.015625l-4.09375 0l0 -19.90625l7.765625 0q2.234375 0 3.9375 0.828125q1.703125 0.8125 2.609375 2.328125q0.921875 1.5 0.921875 3.4375q0 2.921875 -2.0 4.609375q-2.0 1.6875 -5.546875 1.6875l-3.59375 0zm0 -3.328125l3.671875 0q1.625 0 2.46875 -0.765625q0.859375 -0.765625 0.859375 -2.1875q0 -1.453125 -0.859375 -2.359375q-0.859375 -0.90625 -2.375 -0.921875l-3.765625 0l0 6.234375zm18.060547 7.046875l8.71875 0l0 3.296875l-12.8125 0l0 -19.90625l4.09375 0l0 16.609375zm22.5625 -0.8125l-7.1875 0l-1.375 4.109375l-4.359375 0l7.40625 -19.90625l3.8125 0l7.453125 19.90625l-4.375 0l-1.375 -4.109375zm-6.078125 -3.3125l4.96875 0l-2.5 -7.453125l-2.46875 7.453125zm29.871094 7.421875l-4.109375 0l-7.984375 -13.09375l0 13.09375l-4.09375 0l0 -19.90625l4.09375 0l8.0 13.125l0 -13.125l4.09375 0l0 19.90625z" fill-rule="nonzero"/><path fill="#000000" fill-opacity="0.0" d="m467.52542 156.88312l0 0c0 -53.091118 41.488464 -96.129974 92.667145 -96.129974l0 0c24.576843 0 48.147095 10.127949 65.52551 28.155819c17.378479 18.02787 27.141602 42.478897 27.141602 67.97415l0 0c0 53.091125 -41.488525 96.129974 -92.667114 96.129974l0 0c-51.17868 0 -92.667145 -43.03885 -92.667145 -96.129974z" fill-rule="evenodd"/><path stroke="#3c78d8" stroke-width="4.0" stroke-linejoin="round" stroke-linecap="butt" d="m467.52542 156.88312l0 0c0 -53.091118 41.488464 -96.129974 92.667145 -96.129974l0 0c24.576843 0 48.147095 10.127949 65.52551 28.155819c17.378479 18.02787 27.141602 42.478897 27.141602 67.97415l0 0c0 53.091125 -41.488525 96.129974 -92.667114 96.129974l0 0c-51.17868 0 -92.667145 -43.03885 -92.667145 -96.129974z" fill-rule="evenodd"/><path fill="#000000" fill-opacity="0.0" d="m492.08398 124.99994l136.2174 0l0 87.73497l-136.2174 0z" fill-rule="evenodd"/><path fill="#000000" d="m516.5996 158.63118q0 -1.109375 -0.78125 -1.703125q-0.78125 -0.59375 -2.8125 -1.25q-2.03125 -0.65625 -3.203125 -1.296875q-3.234375 -1.734375 -3.234375 -4.6875q0 -1.546875 0.859375 -2.75q0.875 -1.203125 2.484375 -1.875q1.625 -0.6875 3.640625 -0.6875q2.03125 0 3.609375 0.75q1.59375 0.734375 2.46875 2.078125q0.890625 1.328125 0.890625 3.03125l-3.90625 0q0 -1.296875 -0.828125 -2.015625q-0.8125 -0.71875 -2.296875 -0.71875q-1.4375 0 -2.234375 0.609375q-0.78125 0.59375 -0.78125 1.578125q0 0.921875 0.921875 1.546875q0.9375 0.625 2.75 1.171875q3.328125 1.015625 4.84375 2.5q1.53125 1.484375 1.53125 3.6875q0 2.46875 -1.859375 3.875q-1.859375 1.390625 -5.015625 1.390625q-2.1875 0 -3.984375 -0.796875q-1.796875 -0.8125 -2.75 -2.203125q-0.9375 -1.390625 -0.9375 -3.234375l3.921875 0q0 3.140625 3.75 3.140625q1.390625 0 2.171875 -0.5625q0.78125 -0.5625 0.78125 -1.578125zm10.464966 -1.703125l0 6.671875l-3.90625 0l0 -18.953125l7.390625 0q2.140625 0 3.75 0.78125q1.625 0.78125 2.5 2.21875q0.875 1.4375 0.875 3.28125q0 2.78125 -1.90625 4.390625q-1.90625 1.609375 -5.28125 1.609375l-3.421875 0zm0 -3.171875l3.484375 0q1.5625 0 2.375 -0.71875q0.8125 -0.734375 0.8125 -2.09375q0 -1.390625 -0.828125 -2.25q-0.8125 -0.859375 -2.265625 -0.875l-3.578125 0l0 5.9375zm24.693787 1.625l-7.5 0l0 5.078125l8.796875 0l0 3.140625l-12.703125 0l0 -18.953125l12.6875 0l0 3.171875l-8.78125 0l0 4.515625l7.5 0l0 3.046875zm18.46289 1.90625q-0.21875 3.0625 -2.25 4.828125q-2.03125 1.75 -5.375 1.75q-3.640625 0 -5.734375 -2.453125q-2.078125 -2.453125 -2.078125 -6.734375l0 -1.171875q0 -2.734375 0.953125 -4.8125q0.96875 -2.078125 2.75 -3.1875q1.796875 -1.125 4.171875 -1.125q3.28125 0 5.28125 1.765625q2.0 1.75 2.3125 4.9375l-3.90625 0q-0.140625 -1.84375 -1.015625 -2.671875q-0.875 -0.828125 -2.671875 -0.828125q-1.953125 0 -2.921875 1.40625q-0.96875 1.390625 -1.0 4.34375l0 1.421875q0 3.078125 0.921875 4.5q0.9375 1.421875 2.9375 1.421875q1.8125 0 2.703125 -0.828125q0.890625 -0.828125 1.03125 -2.5625l3.890625 0zm6.722351 6.3125l-3.90625 0l0 -18.953125l3.90625 0l0 18.953125zm15.020386 -7.75l-7.5 0l0 7.75l-3.90625 0l0 -18.953125l12.34375 0l0 3.171875l-8.4375 0l0 4.890625l7.5 0l0 3.140625zm9.728699 -2.65625l3.953125 -8.546875l4.265625 0l-6.21875 12.078125l0 6.875l-3.96875 0l0 -6.875l-6.21875 -12.078125l4.28125 0l3.90625 8.546875z" fill-rule="nonzero"/><path fill="#000000" d="m716.22314 164.82562l0 0c0 -3.305008 2.6792603 -5.984253 5.984253 -5.984253l98.2677 0c1.5871582 0 3.109253 0.63049316 4.2315063 1.7527466c1.1222534 1.1222687 1.7527466 2.644394 1.7527466 4.2315063l0 0l0 0c0 3.305008 -2.6791992 5.984253 -5.984253 5.984253l-98.2677 0c-3.3049927 0 -5.984253 -2.679245 -5.984253 -5.984253z" fill-rule="evenodd"/><path fill="#000000" d="m1126.8384 162.76175l0 0c0 -3.305008 2.6793213 -5.984253 5.984253 -5.984253l98.2677 0c1.5871582 0 3.109253 0.6304779 4.2315674 1.7527466c1.1223145 1.1222687 1.7526855 2.6443787 1.7526855 4.2315063l0 0l0 0c0 3.305008 -2.6791992 5.984253 -5.984253 5.984253l-98.2677 0c-3.3049316 0 -5.984253 -2.679245 -5.984253 -5.984253z" fill-rule="evenodd"/><path fill="#000000" fill-opacity="0.0" d="m882.02203 154.81924l0 0c0 -53.091118 41.488464 -96.129974 92.667114 -96.129974l0 0c24.576843 0 48.147095 10.127949 65.52557 28.155819c17.378418 18.027863 27.141602 42.478897 27.141602 67.97415l0 0c0 53.091125 -41.488525 96.129974 -92.667175 96.129974l0 0c-51.17865 0 -92.667114 -43.03885 -92.667114 -96.129974z" fill-rule="evenodd"/><path stroke="#cc0000" stroke-width="4.0" stroke-linejoin="round" stroke-linecap="butt" d="m882.02203 154.81924l0 0c0 -53.091118 41.488464 -96.129974 92.667114 -96.129974l0 0c24.576843 0 48.147095 10.127949 65.52557 28.155819c17.378418 18.027863 27.141602 42.478897 27.141602 67.97415l0 0c0 53.091125 -41.488525 96.129974 -92.667175 96.129974l0 0c-51.17865 0 -92.667114 -43.03885 -92.667114 -96.129974z" fill-rule="evenodd"/><path fill="#000000" fill-opacity="0.0" d="m908.5407 130.00002l136.21735 0l0 82.59122l-136.21735 0z" fill-rule="evenodd"/><path fill="#000000" d="m931.61035 168.6l0 -18.953125l5.828125 0q2.5 0 4.46875 1.125q1.984375 1.125 3.078125 3.203125q1.109375 2.078125 1.109375 4.71875l0 0.875q0 2.640625 -1.09375 4.703125q-1.078125 2.046875 -3.0625 3.1875q-1.96875 1.125 -4.453125 1.140625l-5.875 0zm3.90625 -15.78125l0 12.640625l1.890625 0q2.296875 0 3.5 -1.484375q1.21875 -1.5 1.234375 -4.296875l0 -1.0q0 -2.890625 -1.203125 -4.375q-1.1875 -1.484375 -3.5 -1.484375l-1.921875 0zm24.823975 7.5625l-7.5 0l0 5.078125l8.796875 0l0 3.140625l-12.703125 0l0 -18.953125l12.6875 0l0 3.171875l-8.78125 0l0 4.515625l7.5 0l0 3.046875zm13.416016 3.25q0 -1.109375 -0.78125 -1.703125q-0.78125 -0.59375 -2.8125 -1.25q-2.03125 -0.65625 -3.203125 -1.296875q-3.234375 -1.734375 -3.234375 -4.6875q0 -1.546875 0.859375 -2.75q0.875 -1.203125 2.484375 -1.875q1.625 -0.6875 3.640625 -0.6875q2.03125 0 3.609375 0.75q1.59375 0.734375 2.46875 2.078125q0.890625 1.328125 0.890625 3.03125l-3.90625 0q0 -1.296875 -0.828125 -2.015625q-0.8125 -0.71875 -2.296875 -0.71875q-1.4375 0 -2.234375 0.609375q-0.78125 0.59375 -0.78125 1.578125q0 0.921875 0.921875 1.546875q0.9375 0.625 2.75 1.171875q3.328125 1.015625 4.84375 2.5q1.53125 1.484375 1.53125 3.6875q0 2.46875 -1.859375 3.875q-1.859375 1.390625 -5.015625 1.390625q-2.1875 0 -3.984375 -0.796875q-1.796875 -0.8125 -2.75 -2.203125q-0.9375 -1.390625 -0.9375 -3.234375l3.921875 0q0 3.140625 3.75 3.140625q1.390625 0 2.171875 -0.5625q0.78125 -0.5625 0.78125 -1.578125zm10.714966 4.96875l-3.90625 0l0 -18.953125l3.90625 0l0 18.953125zm18.614136 -2.390625q-1.0625 1.265625 -2.984375 1.96875q-1.921875 0.6875 -4.265625 0.6875q-2.46875 0 -4.328125 -1.078125q-1.84375 -1.078125 -2.859375 -3.109375q-1.0 -2.046875 -1.03125 -4.8125l0 -1.28125q0 -2.84375 0.953125 -4.921875q0.96875 -2.078125 2.765625 -3.171875q1.796875 -1.109375 4.21875 -1.109375q3.375 0 5.265625 1.609375q1.90625 1.609375 2.265625 4.6875l-3.796875 0q-0.265625 -1.625 -1.15625 -2.375q-0.890625 -0.765625 -2.453125 -0.765625q-2.0 0 -3.046875 1.5q-1.03125 1.5 -1.046875 4.453125l0 1.203125q0 2.984375 1.125 4.515625q1.140625 1.515625 3.328125 1.515625q2.203125 0 3.140625 -0.9375l0 -3.265625l-3.546875 0l0 -2.875l7.453125 0l0 7.5625zm18.578857 2.390625l-3.90625 0l-7.609375 -12.46875l0 12.46875l-3.90625 0l0 -18.953125l3.90625 0l7.625 12.5l0 -12.5l3.890625 0l0 18.953125z" fill-rule="nonzero"/><path fill="#000000" fill-opacity="0.0" d="m1296.4883 154.81924l0 0c0 -53.091118 41.488525 -96.129974 92.667114 -96.129974l0 0c24.576904 0 48.147095 10.127949 65.52551 28.155819c17.37854 18.027863 27.141602 42.478897 27.141602 67.97415l0 0c0 53.091125 -41.488525 96.129974 -92.667114 96.129974l0 0c-51.17859 0 -92.667114 -43.03885 -92.667114 -96.129974z" fill-rule="evenodd"/><path stroke="#38761d" stroke-width="4.0" stroke-linejoin="round" stroke-linecap="butt" d="m1296.4883 154.81924l0 0c0 -53.091118 41.488525 -96.129974 92.667114 -96.129974l0 0c24.576904 0 48.147095 10.127949 65.52551 28.155819c17.37854 18.027863 27.141602 42.478897 27.141602 67.97415l0 0c0 53.091125 -41.488525 96.129974 -92.667114 96.129974l0 0c-51.17859 0 -92.667114 -43.03885 -92.667114 -96.129974z" fill-rule="evenodd"/><path fill="#000000" fill-opacity="0.0" d="m1321.0472 126.94225l136.2174 0l0 87.73498l-136.2174 0z" fill-rule="evenodd"/><path fill="#000000" d="m1352.872 160.5735q0 -1.109375 -0.78125 -1.703125q-0.78125 -0.59375 -2.8125 -1.25q-2.03125 -0.65625 -3.203125 -1.296875q-3.234375 -1.734375 -3.234375 -4.6875q0 -1.546875 0.859375 -2.75q0.875 -1.203125 2.484375 -1.875q1.625 -0.6875 3.640625 -0.6875q2.03125 0 3.609375 0.75q1.59375 0.734375 2.46875 2.078125q0.890625 1.328125 0.890625 3.03125l-3.90625 0q0 -1.296875 -0.828125 -2.015625q-0.8125 -0.71875 -2.296875 -0.71875q-1.4375 0 -2.234375 0.609375q-0.78125 0.59375 -0.78125 1.578125q0 0.921875 0.921875 1.546875q0.9375 0.625 2.75 1.171875q3.328125 1.015625 4.84375 2.5q1.53125 1.484375 1.53125 3.6875q0 2.46875 -1.859375 3.875q-1.859375 1.390625 -5.015625 1.390625q-2.1875 0 -3.984375 -0.796875q-1.796875 -0.8125 -2.75 -2.203125q-0.9375 -1.390625 -0.9375 -3.234375l3.921875 0q0 3.140625 3.75 3.140625q1.390625 0 2.171875 -0.5625q0.78125 -0.5625 0.78125 -1.578125zm20.902466 -13.984375l0 12.484375q0 3.109375 -1.953125 4.921875q-1.9375 1.8125 -5.3125 1.8125q-3.3125 0 -5.265625 -1.75q-1.953125 -1.765625 -1.984375 -4.84375l0 -12.625l3.90625 0l0 12.515625q0 1.859375 0.890625 2.71875q0.890625 0.84375 2.453125 0.84375q3.296875 0 3.359375 -3.46875l0 -12.609375l3.90625 0zm7.107666 12.28125l0 6.671875l-3.90625 0l0 -18.953125l7.390625 0q2.140625 0 3.75 0.78125q1.625 0.78125 2.5 2.21875q0.875 1.4375 0.875 3.28125q0 2.78125 -1.90625 4.390625q-1.90625 1.609375 -5.28125 1.609375l-3.421875 0zm0 -3.171875l3.484375 0q1.5625 0 2.375 -0.71875q0.8125 -0.734375 0.8125 -2.09375q0 -1.390625 -0.828125 -2.25q-0.8125 -0.859375 -2.265625 -0.875l-3.578125 0l0 5.9375zm17.193848 3.171875l0 6.671875l-3.90625 0l0 -18.953125l7.390625 0q2.140625 0 3.75 0.78125q1.625 0.78125 2.5 2.21875q0.875 1.4375 0.875 3.28125q0 2.78125 -1.90625 4.390625q-1.90625 1.609375 -5.28125 1.609375l-3.421875 0zm0 -3.171875l3.484375 0q1.5625 0 2.375 -0.71875q0.8125 -0.734375 0.8125 -2.09375q0 -1.390625 -0.828125 -2.25q-0.8125 -0.859375 -2.265625 -0.875l-3.578125 0l0 5.9375zm17.193848 6.703125l8.296875 0l0 3.140625l-12.203125 0l0 -18.953125l3.90625 0l0 15.8125zm13.426636 -7.265625l3.953125 -8.546875l4.265625 0l-6.21875 12.078125l0 6.875l-3.96875 0l0 -6.875l-6.21875 -12.078125l4.28125 0l3.90625 8.546875z" fill-rule="nonzero"/><path fill="#000000" d="m1545.186 162.76175l0 0c0 -3.305008 2.6791992 -5.984253 5.984253 -5.984253l98.2677 0c1.5871582 0 3.109253 0.6304779 4.2314453 1.7527466c1.1223145 1.1222687 1.7528076 2.6443787 1.7528076 4.2315063l0 0l0 0c0 3.305008 -2.6791992 5.984253 -5.984253 5.984253l-98.2677 0c-3.3050537 0 -5.984253 -2.679245 -5.984253 -5.984253z" fill-rule="evenodd"/><path fill="#000000" fill-opacity="0.0" d="m1712.3312 154.81924l0 0c0 -53.091118 41.488525 -96.129974 92.667114 -96.129974l0 0c24.576904 0 48.147095 10.127949 65.52551 28.155819c17.37854 18.027863 27.141602 42.478897 27.141602 67.97415l0 0c0 53.091125 -41.488403 96.129974 -92.667114 96.129974l0 0c-51.17859 0 -92.667114 -43.03885 -92.667114 -96.129974z" fill-rule="evenodd"/><path stroke="#000000" stroke-width="4.0" stroke-linejoin="round" stroke-linecap="butt" d="m1712.3312 154.81924l0 0c0 -53.091118 41.488525 -96.129974 92.667114 -96.129974l0 0c24.576904 0 48.147095 10.127949 65.52551 28.155819c17.37854 18.027863 27.141602 42.478897 27.141602 67.97415l0 0c0 53.091125 -41.488403 96.129974 -92.667114 96.129974l0 0c-51.17859 0 -92.667114 -43.03885 -92.667114 -96.129974z" fill-rule="evenodd"/><path fill="#000000" fill-opacity="0.0" d="m1736.8898 126.94207l136.2174 0l0 87.73498l-136.2174 0z" fill-rule="evenodd"/><path fill="#000000" d="m1758.4867 165.54207l-3.90625 0l0 -18.953125l3.90625 0l0 18.953125zm19.03601 0l-3.90625 0l-7.609375 -12.46875l0 12.46875l-3.90625 0l0 -18.953125l3.90625 0l7.625 12.5l0 -12.5l3.890625 0l0 18.953125zm13.227051 -4.96875q0 -1.109375 -0.78125 -1.703125q-0.78125 -0.59375 -2.8125 -1.25q-2.03125 -0.65625 -3.203125 -1.296875q-3.234375 -1.734375 -3.234375 -4.6875q0 -1.546875 0.859375 -2.75q0.875 -1.203125 2.484375 -1.875q1.625 -0.6875 3.640625 -0.6875q2.03125 0 3.609375 0.75q1.59375 0.734375 2.46875 2.078125q0.890625 1.328125 0.890625 3.03125l-3.90625 0q0 -1.296875 -0.828125 -2.015625q-0.8125 -0.71875 -2.296875 -0.71875q-1.4375 0 -2.234375 0.609375q-0.78125 0.59375 -0.78125 1.578125q0 0.921875 0.921875 1.546875q0.9375 0.625 2.75 1.171875q3.328125 1.015625 4.84375 2.5q1.53125 1.484375 1.53125 3.6875q0 2.46875 -1.859375 3.875q-1.859375 1.390625 -5.015625 1.390625q-2.1875 0 -3.984375 -0.796875q-1.796875 -0.8125 -2.75 -2.203125q-0.9375 -1.390625 -0.9375 -3.234375l3.921875 0q0 3.140625 3.75 3.140625q1.390625 0 2.171875 -0.5625q0.78125 -0.5625 0.78125 -1.578125zm20.82434 -10.8125l-5.796875 0l0 15.78125l-3.90625 0l0 -15.78125l-5.734375 0l0 -3.171875l15.4375 0l0 3.171875zm11.365845 11.875l-6.84375 0l-1.296875 3.90625l-4.15625 0l7.046875 -18.953125l3.625 0l7.09375 18.953125l-4.15625 0l-1.3125 -3.90625zm-5.796875 -3.15625l4.75 0l-2.390625 -7.09375l-2.359375 7.09375zm16.935791 3.921875l8.296875 0l0 3.140625l-12.203125 0l0 -18.953125l3.90625 0l0 15.8125zm14.434448 0l8.296875 0l0 3.140625l-12.203125 0l0 -18.953125l3.90625 0l0 15.8125z" fill-rule="nonzero"/></g></svg>